<?xml version="1.0" standalone="no"?>
<svg xmlns="http://www.w3.org/2000/svg" viewBox="0 0 122.04 29" width="122.04" height="29"><path fill="#5e24c3" fill-rule="nonzero" d="M0 15.32L0 15.32L0 11.80Q0 6.24 2.92 3.12Q5.84 0 11 0Q16.16 0 19.28 3.12L19.28 3.12Q21.48 5.32 21.48 9.72L21.48 9.72L16.28 9.72Q16.28 4.96 11.20 4.96L11.20 4.96Q9.68 4.96 8.62 5.54Q7.56 6.12 7.04 6.88Q6.52 7.64 6.24 9.12Q5.96 10.60 5.92 11.60Q5.88 12.60 5.88 14.28Q5.88 15.96 5.90 16.54Q5.92 17.12 6.02 18.42Q6.12 19.72 6.34 20.28Q6.56 20.84 6.98 21.72Q7.40 22.60 8.04 22.96L8.04 22.96Q9.68 24 11.76 24L11.76 24Q15.24 24 16.68 21.04L16.68 21.04L16.68 19.12L13.24 19.12L13.24 14.48L21.44 14.48L21.44 23.08Q20.20 26 17.52 27.48Q14.84 28.96 11.44 28.96L11.44 28.96Q5.40 28.96 2.70 25.58Q0 22.20 0 15.32ZM42.44 17.24L48.80 28.72L42.36 28.72L36.80 18.16L32.80 18.16L32.80 28.72L27.24 28.72L27.24 6.36Q27.24 3.16 28.72 1.70Q30.20 0.24 33.68 0.24L33.68 0.24L38.40 0.24Q42.64 0.24 45.14 2.82Q47.64 5.40 47.64 9.36L47.64 9.36Q47.64 12.24 46.14 14.34Q44.64 16.44 42.44 17.24L42.44 17.24ZM38.04 13.52Q39.80 13.52 40.94 12.30Q42.08 11.08 42.08 9.26Q42.08 7.44 40.98 6.32Q39.88 5.20 38.04 5.20L38.04 5.20L35.28 5.20Q32.80 5.20 32.80 7.72L32.80 7.72L32.80 13.52L38.04 13.52ZM72.16 23.76L72.16 28.72L62.08 28.72Q57.28 28.72 55.34 27.06Q53.40 25.40 53.40 21.20L53.40 21.20L53.40 0.24L72.16 0.24L72.16 5.20L58.96 5.20L58.96 11.88L68.20 11.88L67.80 16.84L58.96 16.84L58.96 20.80Q58.96 22.48 59.72 23.12Q60.48 23.76 62.48 23.76L62.48 23.76L72.16 23.76ZM96.12 0.24L96.12 5.20L88.48 5.20L88.48 28.72L82.92 28.72L82.92 5.20L75.32 5.20L75.32 0.24L96.12 0.24ZM112.92 2.64L122.04 28.72L116.24 28.72L114.64 23.80L105.08 23.80L103.52 28.72L97.72 28.72L106.84 2.64Q107.44 1.28 108.18 0.76Q108.92 0.24 110 0.24Q111.08 0.24 111.74 0.72Q112.40 1.20 112.92 2.64L112.92 2.64ZM106.48 19.12L113.36 19.12L110 7.84L106.48 19.12Z" transform="translate(0 0) scale(1)"></path></svg>